<?xml version="1.0" standalone="no"?>
<!DOCTYPE svg PUBLIC "-//W3C//DTD SVG 20010904//EN"
 "http://www.w3.org/TR/2001/REC-SVG-20010904/DTD/svg10.dtd">
<svg version="1.0" xmlns="http://www.w3.org/2000/svg"
 width="640.000000pt" height="640.000000pt" viewBox="0 0 640.000000 640.000000"
 preserveAspectRatio="xMidYMid meet">
<metadata>
Created by potrace 1.14, written by Peter Selinger 2001-2017
</metadata>
<g transform="translate(0.000000,640.000000) scale(0.100000,-0.100000)"
fill="#000000" stroke="none">
<path d="M1 4253 c1 -1182 4 -2137 6 -2123 2 14 8 34 12 45 5 11 14 40 21 65
7 25 16 55 21 68 5 13 9 32 9 44 0 12 3 18 7 15 10 -11 33 13 33 34 0 12 7 19
20 19 24 0 45 36 41 70 -1 16 7 36 22 52 13 14 27 42 30 62 3 20 13 43 21 52
9 8 16 23 16 31 0 9 17 37 37 62 21 25 38 49 38 52 0 4 13 17 29 30 l28 22
-28 13 c-19 8 -23 13 -12 13 14 1 18 13 20 68 2 42 8 68 15 71 10 3 13 -15 13
-67 0 -41 4 -71 10 -71 13 0 13 85 0 129 -9 31 -8 33 14 27 18 -4 28 0 40 19
10 16 12 26 5 30 -11 7 -3 64 12 79 16 18 9 36 -13 37 -19 1 -18 3 10 15 27
12 31 18 23 28 -9 10 -8 17 1 28 20 21 38 56 38 73 0 8 7 15 15 15 9 0 15 9
15 24 0 34 10 56 24 56 16 0 15 43 -1 53 -18 11 -16 27 2 27 21 0 54 80 44
108 -6 16 -5 22 6 22 19 0 19 34 0 50 -21 17 -19 25 6 27 33 3 40 15 29 51 -8
30 -7 34 18 43 21 8 29 7 38 -5 6 -9 16 -16 23 -16 15 0 14 27 -1 32 -7 3 -9
12 -5 22 5 12 13 15 26 11 16 -5 24 2 41 39 11 26 24 46 28 46 4 0 7 51 8 113
1 137 9 181 36 207 16 15 18 22 10 33 -9 11 -7 16 13 25 21 10 25 18 25 56 0
25 4 48 10 51 5 3 10 28 10 55 0 34 4 50 16 54 8 3 13 10 9 15 -3 6 4 15 15
21 15 8 19 17 15 31 -4 12 -2 19 7 19 23 0 7 90 -16 90 -6 0 -3 5 7 11 11 7
16 17 12 29 -3 10 1 25 10 33 8 9 15 29 15 45 0 73 13 124 34 132 21 9 21 9
-2 16 l-23 7 21 19 c11 10 20 25 20 32 0 8 13 19 30 24 20 7 32 20 36 39 12
47 44 101 63 106 13 3 21 21 30 66 7 34 9 65 6 70 -3 5 -1 12 5 16 5 3 10 -3
10 -14 0 -26 25 -28 39 -4 7 13 5 23 -7 36 -15 17 -14 20 12 42 19 16 28 34
29 59 2 35 17 52 17 19 0 -28 21 0 24 33 2 21 9 30 25 32 23 4 28 17 9 25 -10
4 -10 6 0 6 6 1 12 6 12 11 0 6 11 23 25 38 14 15 21 28 15 30 -6 2 -5 11 2
22 6 10 18 16 25 13 25 -10 63 7 63 27 0 11 5 20 11 20 5 0 8 4 5 9 -4 5 -3
11 1 13 5 1 16 17 25 33 19 35 29 41 84 55 36 9 42 14 40 35 0 14 -7 25 -13
25 -7 0 -13 5 -13 11 0 5 4 8 8 5 5 -3 18 3 30 14 27 25 89 60 106 60 8 0 23
16 35 35 12 21 26 33 34 29 8 -3 20 2 27 11 7 8 22 15 34 15 11 0 32 9 46 20
14 11 31 20 38 20 6 0 11 5 10 12 -2 6 6 14 17 17 27 8 75 41 75 52 0 5 -10 9
-22 9 -23 0 -23 1 2 14 16 8 31 10 43 4 31 -16 41 -4 40 48 -1 27 1 41 3 32 4
-12 15 -18 33 -18 24 0 30 5 35 30 3 17 11 29 17 28 6 -2 14 3 16 10 4 9 -234
12 -1166 12 l-1171 0 1 -2147z"/>
<path d="M2382 6388 c6 -16 80 -16 85 0 3 8 -9 12 -42 12 -31 0 -45 -4 -43
-12z"/>
<path d="M2490 6390 c0 -5 9 -10 20 -10 11 0 20 5 20 10 0 6 -9 10 -20 10 -11
0 -20 -4 -20 -10z"/>
<path d="M4065 6390 c3 -6 27 -10 52 -10 39 0 44 -2 33 -15 -13 -16 -4 -39 11
-29 6 3 9 -2 7 -12 -3 -20 12 -23 44 -9 21 8 38 -23 19 -34 -17 -11 -3 -41 16
-34 9 4 14 2 10 -3 -3 -6 9 -10 29 -10 20 0 29 3 21 8 -8 5 -9 8 0 8 25 0 43
-13 43 -32 0 -11 8 -22 20 -25 14 -4 21 -17 26 -49 5 -36 10 -44 28 -44 11 0
35 -11 51 -25 25 -20 27 -24 11 -25 -15 0 -16 -3 -6 -15 7 -8 18 -15 24 -15 6
0 19 -9 29 -20 13 -16 22 -18 36 -11 19 11 41 -3 41 -26 0 -7 18 -17 40 -23
32 -9 41 -16 48 -43 5 -18 14 -31 20 -30 14 3 34 -59 26 -80 -4 -12 -1 -17 10
-17 8 0 23 -15 32 -32 9 -18 20 -35 23 -38 3 -3 11 -14 17 -25 7 -12 21 -20
36 -19 20 1 26 -4 26 -20 -1 -19 8 -48 35 -116 l9 -25 9 23 c13 34 32 27 26
-10 -4 -33 9 -77 28 -90 5 -4 10 -13 11 -20 0 -7 8 -30 17 -51 10 -23 15 -55
13 -80 l-4 -42 18 23 19 22 7 -22 c4 -12 2 -24 -3 -25 -6 -2 -19 -11 -29 -19
-10 -9 -13 -13 -6 -9 19 10 44 -22 37 -45 -4 -13 -1 -22 9 -26 8 -3 12 -12 9
-20 -3 -8 2 -25 11 -39 9 -13 16 -33 16 -43 0 -11 10 -27 23 -36 l22 -16 -30
2 c-25 3 -30 7 -28 28 2 19 0 21 -6 10 -16 -26 -1 -71 28 -82 25 -10 26 -10 5
-18 -30 -12 -33 -19 -24 -65 l8 -40 1 43 c2 69 19 39 19 -33 0 -36 2 -69 6
-72 3 -4 17 3 29 15 13 12 26 19 30 16 4 -4 4 -38 0 -76 -5 -59 -4 -68 11 -68
9 0 21 -11 26 -25 5 -14 14 -25 19 -25 5 0 11 -9 14 -20 3 -12 14 -20 27 -20
19 0 22 -4 18 -30 -3 -20 0 -30 8 -30 7 0 14 -12 16 -27 2 -16 8 -27 14 -26
15 3 28 -89 14 -97 -6 -4 1 -12 15 -20 21 -11 27 -11 43 3 18 16 19 15 17 -18
0 -21 4 -35 11 -35 7 0 15 -7 18 -16 10 -25 7 -84 -4 -84 -14 0 -12 -74 3 -89
10 -11 10 -14 0 -18 -19 -7 -16 -23 3 -23 9 0 23 -8 30 -17 9 -12 13 -14 14
-5 0 7 5 10 10 7 14 -8 13 -48 -1 -62 -7 -7 -9 -19 -5 -29 6 -16 8 -16 20 2
23 31 45 3 40 -54 -2 -26 -5 -80 -7 -119 l-4 -73 34 -12 c21 -8 32 -17 28 -25
-3 -7 -8 -20 -11 -28 -4 -10 0 -15 10 -15 12 0 16 -10 16 -36 0 -37 18 -64 43
-64 22 0 46 -43 40 -73 -4 -19 -1 -27 8 -27 8 0 20 -15 28 -32 8 -18 18 -36
23 -39 5 -3 10 -33 11 -67 1 -42 5 -62 14 -62 7 0 10 -7 6 -16 -5 -15 -7 -15
-15 0 -5 9 -13 16 -18 16 -16 0 -11 -37 4 -43 8 -3 16 -22 18 -43 4 -48 47
-85 74 -63 15 12 16 12 10 -9 -6 -16 -3 -22 8 -22 9 0 16 6 17 13 0 6 4 2 9
-10 6 -15 15 -20 29 -16 27 7 43 -27 35 -79 -3 -26 -2 -38 3 -31 11 16 53 -10
53 -33 0 -8 11 -24 25 -36 14 -12 25 -27 25 -33 0 -7 11 -10 29 -7 25 3 29 0
35 -28 4 -24 10 -31 22 -26 9 4 23 1 30 -5 11 -9 14 -7 14 9 0 15 5 20 15 16
8 -4 15 -15 15 -26 0 -22 18 -60 34 -70 6 -4 11 -13 11 -19 0 -7 7 -15 15 -19
8 -4 25 -12 37 -18 13 -7 27 -12 33 -12 7 0 10 625 10 1905 l0 1905 -1170 0
c-760 0 -1169 -4 -1165 -10z m945 -924 c0 -8 -4 -18 -10 -21 -5 -3 -10 3 -10
14 0 12 5 21 10 21 6 0 10 -6 10 -14z m240 -800 c0 -8 -7 -17 -16 -20 -23 -9
-24 -8 -24 14 0 13 7 20 20 20 11 0 20 -6 20 -14z m118 -207 c-3 -8 -7 -3 -11
10 -4 17 -3 21 5 13 5 -5 8 -16 6 -23z m165 -353 c5 -14 -10 -36 -25 -36 -4 0
-8 11 -8 25 0 27 24 35 33 11z"/>
<path d="M2575 6200 c-3 -5 -13 -6 -22 -3 -12 5 -14 3 -8 -7 6 -10 4 -12 -8
-7 -9 3 -19 2 -22 -3 -3 -4 1 -10 7 -13 16 -5 68 20 68 33 0 13 -7 13 -15 0z"/>
<path d="M3390 6193 c14 -2 34 -8 45 -12 11 -5 36 -13 55 -19 30 -8 19 -10
-65 -11 -56 -1 -127 -8 -158 -16 -32 -8 -67 -15 -77 -15 -11 0 -20 -4 -20 -10
0 -5 9 -10 19 -10 11 0 22 -3 24 -7 3 -5 -36 -8 -86 -8 -53 0 -101 -6 -112
-13 -19 -11 -19 -11 3 -12 13 0 31 -4 41 -10 22 -11 120 -30 176 -34 88 -5
162 -18 195 -34 l35 -17 -28 -3 c-19 -2 -33 3 -43 15 -8 10 -13 13 -14 6 0
-10 -19 -11 -74 -7 -44 4 -76 3 -79 -3 -4 -6 22 -12 65 -16 39 -3 75 -10 81
-16 10 -10 -202 -7 -288 4 -37 5 -46 4 -35 -4 8 -6 27 -11 43 -11 15 0 27 -4
27 -9 0 -5 -32 -9 -70 -9 -39 -1 -68 3 -66 7 12 18 -247 23 -361 7 -77 -11
-65 -22 17 -16 39 3 78 2 87 -1 10 -3 -23 -9 -72 -13 -126 -10 -241 -38 -230
-56 3 -4 -10 -13 -28 -20 -82 -31 -158 -65 -124 -55 33 9 7 -15 -39 -37 -25
-11 -64 -38 -86 -60 -42 -40 -98 -62 -98 -38 0 10 -3 10 -15 0 -8 -7 -13 -16
-10 -20 3 -5 -4 -11 -15 -15 -29 -9 -73 -89 -65 -117 4 -16 4 -19 -3 -9 -8 10
-13 5 -23 -22 -9 -26 -16 -33 -24 -27 -7 6 -15 7 -18 3 -4 -3 -7 -1 -7 5 0 7
-4 12 -10 12 -5 0 -10 -8 -10 -17 0 -10 -7 -31 -15 -47 -13 -24 -13 -31 -3
-38 8 -5 9 -11 3 -15 -20 -15 -36 -55 -30 -73 4 -13 -2 -28 -15 -42 -19 -21
-20 -23 -4 -35 10 -7 15 -16 11 -19 -3 -4 -2 -15 4 -25 8 -16 6 -19 -10 -19
-14 0 -19 -5 -15 -15 4 -10 13 -13 25 -10 17 6 18 1 14 -55 -2 -33 0 -71 5
-83 l9 -22 0 23 c1 12 8 25 16 28 21 8 19 34 -2 34 -11 0 -4 7 16 17 26 13 37
14 52 5 11 -7 19 -8 19 -2 0 17 63 81 75 76 16 -6 35 7 49 35 9 19 19 24 46
22 56 -2 122 -14 168 -29 56 -18 59 -18 32 6 -13 11 -18 20 -12 20 13 0 42
-28 42 -41 0 -5 9 -9 20 -9 11 0 23 -6 26 -14 7 -19 74 -45 132 -52 54 -6 92
-24 147 -69 22 -18 55 -36 72 -39 18 -4 35 -12 38 -17 8 -12 25 -11 25 1 0 6
-8 14 -17 17 -22 9 -96 83 -89 90 3 3 25 -10 48 -29 53 -43 81 -58 107 -58 12
0 21 -4 21 -10 0 -5 12 -10 28 -10 15 0 42 -9 60 -20 18 -11 38 -20 46 -20 11
0 43 -15 121 -58 11 -6 66 -23 122 -37 57 -15 104 -33 107 -41 3 -8 14 -14 25
-14 11 0 33 -5 48 -11 15 -6 37 -15 48 -19 11 -4 41 -17 66 -29 25 -11 53 -21
62 -21 9 0 19 -5 23 -11 3 -6 15 -9 25 -6 11 3 25 0 32 -6 6 -7 21 -12 31 -12
22 0 55 -52 49 -75 -4 -11 -3 -12 4 -2 7 10 13 9 25 -5 24 -28 29 -66 12 -98
-10 -19 -11 -32 -4 -39 5 -5 10 -20 10 -33 0 -13 6 -23 13 -23 15 0 18 -42 3
-53 -7 -5 -5 -12 5 -20 13 -10 17 -28 15 -80 -2 -58 0 -70 17 -79 18 -9 18
-11 -7 -37 -26 -27 -36 -71 -16 -71 16 0 12 -60 -5 -77 -17 -16 -11 -33 11
-33 10 0 13 -6 10 -18 -5 -15 0 -19 26 -20 82 -3 127 -14 133 -32 3 -10 12
-21 20 -24 8 -3 15 -12 15 -20 0 -15 -60 -30 -117 -28 -20 1 -40 -6 -50 -17
-12 -13 -38 -21 -78 -24 -33 -3 -74 -13 -90 -21 -17 -9 -41 -14 -56 -11 -15 4
-32 1 -41 -7 -23 -22 -110 -64 -160 -79 -27 -7 -48 -17 -48 -21 0 -4 -16 -14
-35 -22 -30 -13 -38 -13 -65 1 -31 15 -45 12 -45 -10 0 -7 -13 -14 -30 -15
-46 -5 -66 -28 -54 -60 6 -14 7 -37 4 -50 -4 -15 0 -31 10 -41 10 -12 15 -35
14 -67 0 -27 1 -74 3 -104 2 -30 0 -63 -4 -72 -5 -10 -4 -34 0 -55 5 -23 4
-83 -4 -151 -7 -70 -8 -127 -3 -150 6 -24 5 -47 -3 -65 -9 -24 -8 -34 11 -67
17 -31 20 -44 11 -60 -7 -13 -7 -20 0 -20 5 0 10 -5 10 -11 0 -5 -5 -7 -11 -3
-7 4 -10 -2 -8 -17 3 -34 -11 -101 -27 -124 -8 -11 -14 -14 -14 -7 0 10 -7 9
-28 -3 -22 -13 -36 -15 -63 -7 l-35 9 4 -33 c5 -45 -9 -44 -65 5 -50 45 -129
69 -164 51 -10 -6 -19 -14 -19 -19 0 -15 54 -70 84 -85 28 -14 33 -14 63 5 37
23 48 20 107 -35 31 -30 31 -25 -4 -155 -19 -72 -18 -143 2 -107 5 9 15 16 23
16 27 0 44 29 40 70 -3 22 0 40 5 40 5 0 11 9 15 19 10 32 38 30 68 -3 21 -23
27 -38 24 -61 -6 -36 19 -95 40 -95 9 0 13 -6 9 -15 -3 -8 -1 -15 4 -15 6 0
10 -7 10 -15 0 -9 10 -16 23 -16 12 -1 -6 -5 -39 -10 -34 -4 -80 -17 -103 -28
-48 -25 -95 -27 -144 -6 -49 20 -99 19 -193 -6 -89 -24 -143 -26 -187 -8 -25
10 -34 10 -62 -5 -33 -18 -54 -61 -38 -77 4 -4 28 -4 52 1 24 4 73 4 110 -1
36 -4 109 -13 161 -19 141 -17 164 -21 180 -27 8 -3 58 -7 110 -9 116 -4 160
-10 173 -23 6 -6 22 -11 36 -11 16 0 21 -4 15 -9 -16 -16 -155 -30 -269 -27
-118 3 -142 -3 -193 -46 -18 -15 -37 -28 -42 -28 -14 0 -12 -42 4 -62 16 -22
59 -39 111 -43 22 -2 60 -9 84 -15 25 -6 96 -9 158 -7 62 2 116 1 119 -2 3 -3
11 -6 17 -6 39 -2 79 -20 97 -45 24 -34 23 -77 -2 -83 -10 -3 -18 -14 -18 -25
0 -11 -11 -30 -25 -43 -13 -13 -25 -32 -25 -41 0 -21 -16 -24 -24 -5 -3 6 -4
-5 -1 -25 5 -33 2 -41 -27 -67 -20 -18 -44 -31 -60 -31 -18 0 -28 -5 -28 -14
0 -8 -4 -18 -10 -21 -11 -7 -84 41 -114 74 -26 29 -42 26 -63 -9 -11 -19 -25
-30 -39 -30 -12 0 -24 -7 -28 -15 -4 -11 -20 -15 -56 -15 -27 0 -50 -4 -50
-10 0 -13 -56 -13 -81 1 -15 7 -24 7 -35 -2 -11 -9 -14 -8 -14 5 0 19 -11 21
-27 5 -8 -8 -17 -7 -34 2 -13 7 -33 14 -43 16 -21 4 -66 48 -66 65 0 7 -4 7
-13 -1 -16 -13 -27 -5 -27 21 0 11 -13 25 -33 34 -18 8 -42 31 -55 50 -12 19
-31 34 -41 34 -10 0 -26 11 -35 25 -9 14 -22 25 -29 25 -7 0 -25 11 -40 26
-15 14 -31 23 -35 20 -10 -6 -130 116 -163 164 -13 20 -38 53 -56 75 -18 22
-55 69 -82 105 -28 36 -56 72 -63 80 -7 8 -33 53 -57 100 -24 47 -47 90 -51
95 -16 22 -51 161 -61 243 -6 48 -13 89 -16 92 -7 7 -72 -71 -95 -115 -12 -22
-20 -41 -18 -43 5 -5 -22 -138 -32 -159 -8 -17 -8 -37 2 -78 11 -46 11 -67 0
-125 -7 -39 -17 -73 -22 -76 -4 -3 -8 -29 -8 -57 -1 -29 -7 -81 -15 -117 -8
-36 -14 -99 -15 -141 0 -41 -4 -100 -10 -130 -5 -30 -14 -96 -19 -147 -10 -96
-10 -96 -143 -380 -13 -27 -53 -73 -111 -125 -50 -45 -108 -99 -129 -119 -20
-21 -42 -38 -47 -38 -6 0 -27 11 -47 25 -57 39 -100 38 -229 -7 -98 -34 -151
-56 -363 -154 -29 -13 -58 -24 -65 -24 -8 0 -23 -10 -34 -23 -48 -53 -29 -107
38 -107 90 0 0 -71 -96 -75 -27 -1 -81 -14 -120 -29 -38 -14 -89 -33 -113 -42
-33 -13 -42 -21 -42 -40 l0 -24 3200 0 3200 0 0 78 0 78 -52 58 c-69 78 -164
119 -424 185 -22 6 -51 20 -64 31 -13 11 -31 20 -41 20 -13 0 -19 9 -21 37 -3
33 -8 40 -53 63 -58 28 -95 44 -145 61 -19 7 -39 15 -45 19 -5 4 -46 15 -90
25 -44 10 -87 20 -95 22 -8 3 -34 6 -57 7 -29 1 -47 8 -60 23 -10 12 -31 25
-48 28 -28 6 -29 5 -12 -8 22 -18 12 -25 -45 -33 -33 -5 -48 -2 -60 10 -23 23
-31 20 -24 -9 5 -18 1 -27 -14 -35 -11 -6 -20 -18 -20 -26 0 -19 -19 -14 -120
35 -67 32 -78 41 -99 84 -20 42 -23 62 -23 155 0 72 -6 134 -19 190 -11 50
-19 120 -19 175 0 51 -4 107 -10 126 -7 25 -6 41 6 63 13 25 14 40 4 99 -7 43
-9 101 -5 150 7 75 6 82 -16 107 -13 14 -16 20 -6 13 29 -23 20 5 -19 56 -20
26 -40 58 -45 70 -5 13 -13 23 -18 23 -4 0 -11 13 -14 29 -5 22 -13 31 -36 36
-16 3 -36 14 -43 22 -11 14 -10 16 9 11 22 -6 22 -5 -3 28 -28 36 -39 41 -47
22 -4 -10 -6 -10 -6 0 -1 6 -8 12 -16 12 -8 0 -15 5 -15 10 0 6 -9 10 -20 10
-20 0 -20 4 -14 142 3 79 10 166 15 194 6 28 9 55 8 60 -6 31 3 64 16 64 26 0
89 37 124 72 57 57 80 109 92 199 7 46 24 125 40 174 21 67 31 127 39 235 6
80 15 163 20 185 5 22 9 87 9 145 0 130 -16 173 -66 178 -18 2 -42 -2 -55 -9
-23 -12 -23 -12 -4 10 11 11 14 21 9 21 -6 0 -18 -15 -27 -34 -8 -18 -23 -39
-32 -47 -15 -12 -16 -6 -10 76 4 50 9 99 12 110 11 51 24 675 14 675 -3 0 -6
24 -7 53 -1 28 -6 93 -12 142 -5 50 -12 126 -15 170 -4 44 -12 104 -18 134
-10 44 -10 55 1 59 9 3 6 11 -10 28 -16 17 -23 38 -24 67 -1 26 -6 41 -13 40
-7 -2 -12 4 -12 13 0 9 -9 27 -20 41 -26 33 -17 43 13 15 44 -41 35 -11 -9 33
-24 25 -44 54 -44 66 0 11 -13 33 -28 47 -30 28 -51 82 -32 82 21 0 8 21 -31
50 -23 16 -57 50 -77 76 -21 26 -48 58 -61 71 -29 30 -20 42 14 19 31 -20 32
-14 3 20 -34 39 -107 74 -77 37 12 -15 12 -16 -4 -10 -10 4 -20 7 -23 7 -2 0
-2 6 0 13 1 6 1 9 -1 5 -9 -15 -32 -7 -75 25 -24 18 -63 45 -88 60 -25 15 -39
27 -31 27 11 0 10 4 -3 19 -10 11 -15 24 -12 29 11 18 -64 65 -109 67 -16 1
-40 5 -52 9 -14 4 -23 3 -23 -3 0 -6 8 -11 18 -11 9 0 28 -10 42 -21 21 -17
22 -20 5 -15 -54 17 -105 42 -105 51 0 23 -238 77 -322 74 -26 -1 -28 -3 -8
-6z m187 -39 c-3 -3 -12 -4 -19 -1 -8 3 -5 6 6 6 11 1 17 -2 13 -5z m60 -10
c-3 -3 -12 -4 -19 -1 -8 3 -5 6 6 6 11 1 17 -2 13 -5z m-232 -19 c-25 -9 -145
-12 -145 -4 0 5 35 9 78 8 42 0 73 -2 67 -4z m472 -61 c-3 -3 -12 -4 -19 -1
-8 3 -5 6 6 6 11 1 17 -2 13 -5z m-1242 -203 c14 -6 -1 -10 -48 -12 -37 -2
-67 -1 -67 3 0 6 18 9 85 16 6 0 19 -3 30 -7z m254 -4 c12 1 19 -3 15 -7 -12
-11 -175 0 -168 11 3 5 33 6 67 2 34 -4 73 -6 86 -6z m178 -43 c17 -8 36 -14
42 -14 6 0 20 -9 32 -21 13 -13 27 -18 42 -14 17 5 19 4 7 -4 -12 -8 -10 -12
11 -19 27 -11 55 -39 46 -48 -3 -3 -49 15 -102 40 -53 25 -101 46 -106 46 -5
0 -9 4 -9 8 0 5 -16 14 -35 22 -19 8 -30 17 -24 20 14 9 56 2 96 -16z m0 -60
c-3 -3 -12 -4 -19 -1 -8 3 -5 6 6 6 11 1 17 -2 13 -5z m-93 -13 c4 -5 -3 -7
-14 -4 -23 6 -26 13 -6 13 8 0 17 -4 20 -9z m-44 -18 c14 -7 32 -13 40 -13 18
0 157 -48 210 -73 27 -12 29 -15 10 -12 -14 2 -45 6 -70 9 -41 5 -43 4 -26 -9
11 -8 28 -15 37 -15 10 0 21 -4 24 -10 3 -5 1 -10 -4 -10 -26 0 -8 -18 24 -24
33 -6 53 -22 42 -32 -3 -3 -25 0 -48 7 -24 7 -56 11 -71 10 -16 -1 -28 3 -28
7 0 5 -14 9 -31 9 -17 0 -34 4 -37 9 -4 5 -27 20 -52 33 -25 14 -51 31 -58 38
-7 7 -22 13 -33 13 -10 0 -19 6 -19 14 0 33 -237 45 -384 20 -26 -5 -37 -4
-33 3 11 17 54 24 192 32 181 11 286 9 315 -6z m198 -4 c2 -5 12 -9 23 -9 11
0 32 -11 47 -25 15 -14 21 -25 15 -25 -7 0 -15 5 -18 10 -3 6 -19 10 -34 10
-15 0 -36 7 -47 15 -10 8 -31 15 -46 15 -37 0 -45 18 -11 23 33 4 67 -2 71
-14z m-784 -40 c-3 -6 -17 -8 -30 -5 -14 4 -33 2 -44 -4 -11 -6 -26 -8 -32 -4
-17 11 18 22 70 23 29 1 41 -3 36 -10z m2011 -49 c3 -5 1 -10 -4 -10 -6 0 -11
5 -11 10 0 6 2 10 4 10 3 0 8 -4 11 -10z m-1990 -10 c-11 -5 -36 -8 -55 -8
-28 0 -31 1 -12 6 13 4 38 8 55 9 26 1 28 0 12 -7z m250 -5 l60 -15 -65 6
c-70 7 -127 23 -80 23 14 0 52 -7 85 -14z m102 -21 c-3 -3 -12 -4 -19 -1 -8 3
-5 6 6 6 11 1 17 -2 13 -5z m-487 -24 c-20 -13 -53 -13 -45 0 3 6 18 10 33 10
21 0 24 -2 12 -10z m765 -16 c14 -9 34 -13 47 -10 13 3 17 3 11 0 -20 -9 -16
-18 18 -38 33 -20 33 -34 0 -16 -25 13 -26 8 -5 -31 19 -38 14 -45 -14 -19
-12 11 -24 20 -27 20 -3 0 -30 20 -61 45 -52 42 -58 58 -12 34 27 -14 38 -1
14 17 -27 19 -1 18 29 -2z m-485 -3 c0 -5 15 -11 33 -15 17 -3 70 -25 116 -49
73 -36 80 -43 58 -47 -22 -4 -11 -12 66 -46 51 -23 111 -50 135 -60 24 -9 52
-26 64 -36 20 -17 20 -18 2 -19 -14 0 -11 -4 9 -11 16 -6 26 -15 23 -23 -2 -7
1 -18 7 -25 10 -10 8 -11 -8 -5 -11 5 -36 10 -55 11 -21 1 -34 7 -32 14 2 7
-5 9 -18 5 -11 -3 -28 -1 -37 5 -16 10 -16 11 -1 6 11 -3 15 -1 12 8 -3 7 -29
21 -59 31 -41 14 -52 22 -44 31 8 10 1 14 -28 19 -85 14 -83 13 -73 41 9 22 8
25 -4 21 -10 -4 -13 -1 -10 8 8 20 -33 61 -85 84 -48 20 -104 30 -236 41 -28
3 -27 3 10 10 59 11 155 11 155 1z m610 -31 c0 -5 -4 -10 -10 -10 -5 0 -10 5
-10 10 0 6 5 10 10 10 6 0 10 -4 10 -10z m-331 -56 c13 -13 36 -26 49 -29 14
-3 37 -15 50 -26 29 -23 50 -25 32 -4 -7 8 -18 15 -24 15 -7 0 -23 11 -36 25
-13 14 -28 25 -32 25 -5 0 -16 7 -24 15 -17 17 -4 20 24 6 9 -5 37 -18 62 -30
67 -33 153 -81 171 -97 8 -8 24 -14 33 -14 21 0 136 -78 136 -92 0 -5 -12 -1
-27 10 -36 25 -93 44 -93 31 0 -5 11 -14 24 -19 29 -11 43 -30 22 -30 -9 0
-16 5 -16 10 0 6 -9 10 -19 10 -11 0 -41 10 -68 22 -26 12 -52 20 -56 19 -5
-1 -20 8 -34 19 -15 11 -46 29 -70 40 -24 10 -43 24 -43 29 0 6 -4 11 -10 11
-8 0 -120 79 -120 86 0 9 49 -13 69 -32z m-277 -106 c-8 -8 -20 -8 -44 -1
l-33 11 45 1 c33 1 41 -2 32 -11z m235 -34 c-3 -3 -12 -4 -19 -1 -8 3 -5 6 6
6 11 1 17 -2 13 -5z m-622 -42 c-3 -3 -11 0 -18 7 -9 10 -8 11 6 5 10 -3 15
-9 12 -12z m706 -48 c27 -9 49 -21 49 -26 0 -5 4 -7 8 -4 5 3 31 -7 58 -21 27
-14 38 -23 26 -20 -23 6 -24 5 -5 -15 17 -20 17 -21 0 -15 -10 4 -16 3 -13 -2
3 -5 18 -11 33 -14 16 -3 36 -12 46 -19 16 -12 13 -13 -24 -14 -25 -1 -36 2
-28 7 11 6 10 9 -4 13 -37 12 -75 33 -87 47 -3 3 -28 18 -57 33 -32 18 -50 33
-46 41 3 8 -5 15 -19 18 -16 3 -17 5 -5 6 10 0 40 -6 68 -15z m223 -5 c-3 -6
0 -15 7 -20 7 -4 10 -11 7 -14 -11 -11 -28 5 -28 26 0 10 5 19 11 19 5 0 7 -5
3 -11z m-180 -99 c16 -16 -12 -12 -39 6 -14 9 -25 13 -25 10 0 -4 -11 1 -25
10 -14 9 -29 13 -33 9 -9 -9 31 -41 91 -72 50 -25 57 -40 15 -30 -36 10 -120
66 -113 77 3 6 -1 13 -9 16 -12 4 -12 9 -3 18 9 10 23 8 71 -11 33 -13 65 -28
70 -33z m71 -30 c7 -12 -2 -12 -30 0 -19 8 -19 9 2 9 12 1 25 -3 28 -9z m-29
-48 c-2 -4 3 -8 12 -9 9 -1 34 -8 55 -16 l39 -14 -32 -7 c-19 -3 -55 1 -86 10
-30 8 -57 13 -61 11 -5 -3 -19 1 -33 9 -19 11 -20 14 -5 10 11 -3 36 -1 55 3
47 12 62 13 56 3z m284 -72 c8 -5 11 -10 5 -10 -5 0 -17 5 -25 10 -8 5 -10 10
-5 10 6 0 17 -5 25 -10z m434 -1630 l27 -31 -28 7 c-34 8 -53 25 -35 31 6 3
10 9 6 14 -11 19 4 8 30 -21z m140 -82 c3 -16 14 -29 28 -34 26 -8 67 -36 68
-46 0 -3 -19 -10 -42 -14 -48 -9 -43 -9 -83 0 -27 6 -28 5 -12 -8 9 -7 36 -16
58 -20 22 -4 50 -15 62 -26 23 -22 37 -26 37 -9 0 6 13 1 29 -10 16 -12 34
-21 41 -21 6 0 15 -13 21 -28 8 -24 14 -28 40 -24 35 5 90 -35 67 -49 -7 -4
-9 -11 -5 -15 4 -4 13 -2 19 4 7 7 25 12 40 12 22 0 27 -4 25 -20 -2 -11 -13
-30 -25 -43 -12 -13 -22 -30 -22 -39 0 -9 -7 -18 -15 -22 -8 -3 -15 -12 -15
-21 0 -8 -3 -14 -7 -13 -16 3 -43 -15 -43 -28 0 -8 -9 -14 -20 -14 -15 0 -20
-7 -20 -29 0 -16 -7 -34 -15 -41 -11 -9 -14 -22 -9 -46 4 -21 2 -34 -4 -34
-12 0 -34 -59 -26 -71 3 -5 0 -18 -6 -29 -7 -12 -7 -26 -2 -36 11 -19 -16
-103 -37 -120 -12 -10 -11 -13 7 -18 13 -4 22 -16 22 -27 0 -11 -4 -17 -10
-14 -6 3 -7 -1 -4 -10 4 -8 2 -21 -4 -28 -5 -6 -13 -31 -17 -54 -4 -24 -11
-43 -15 -43 -5 0 -11 -13 -15 -28 -6 -30 -45 -63 -45 -38 0 7 -10 14 -22 14
-40 0 -94 30 -131 71 -20 23 -44 41 -52 41 -8 0 -15 9 -15 19 0 11 -5 21 -11
23 -6 2 -13 29 -14 61 -3 46 -1 57 11 57 8 0 12 -5 9 -11 -5 -7 3 -9 21 -7 27
3 29 6 26 41 -3 33 -33 101 -52 117 -3 3 -30 44 -58 91 -46 75 -51 89 -43 112
6 15 7 27 3 27 -4 0 -6 16 -4 35 5 41 22 47 22 8 0 -14 3 -23 6 -20 10 10 13
67 3 67 -5 0 -6 7 -3 15 4 8 12 15 20 15 8 0 14 7 14 15 0 9 -6 12 -15 9 -11
-5 -15 1 -17 22 -2 43 -3 48 -12 62 -5 8 -4 18 3 25 8 8 11 8 11 -1 0 -16 11
-15 34 3 17 13 17 15 -8 47 l-25 34 32 25 c50 39 57 42 81 30 17 -9 29 -9 51
0 26 11 27 13 10 17 -11 2 -27 13 -37 24 -9 11 -22 17 -29 13 -7 -5 -10 -3 -7
6 3 8 13 14 22 14 10 0 22 9 29 20 20 36 32 44 64 42 25 -2 32 -7 37 -29z
m-324 -3 c14 -19 14 -19 -2 -6 -10 7 -18 18 -18 24 0 6 1 8 3 6 1 -2 9 -13 17
-24z m397 -27 c-3 -7 -5 -2 -5 12 0 14 2 19 5 13 2 -7 2 -19 0 -25z m-312 -98
c3 -5 1 -10 -4 -10 -6 0 -11 5 -11 10 0 6 2 10 4 10 3 0 8 -4 11 -10z"/>
<path d="M2990 5656 c42 -17 58 -20 45 -7 -6 5 -26 12 -45 15 l-35 6 35 -14z"/>
<path d="M2428 5543 c6 -2 18 -2 25 0 6 3 1 5 -13 5 -14 0 -19 -2 -12 -5z"/>
<path d="M3720 3278 c0 -7 4 -19 9 -27 11 -17 25 3 17 24 -7 18 -26 20 -26 3z"/>
<path d="M3080 6171 l-25 -7 26 -5 c37 -8 149 2 149 12 0 11 -114 10 -150 0z"/>
<path d="M3740 6171 c0 -5 7 -11 15 -15 8 -3 15 -1 15 3 0 5 -7 11 -15 15 -8
3 -15 1 -15 -3z"/>
<path d="M3788 6143 c7 -3 16 -2 19 1 4 3 -2 6 -13 5 -11 0 -14 -3 -6 -6z"/>
<path d="M2800 6043 c-160 -24 -165 -25 -140 -35 16 -6 60 -6 125 1 55 7 144
13 197 14 53 1 94 5 90 8 -8 8 -236 18 -272 12z"/>
<path d="M3950 6040 c0 -5 6 -10 14 -10 8 0 16 -4 18 -9 2 -4 14 -11 28 -15
24 -7 24 -7 5 8 -11 8 -25 20 -32 26 -15 13 -33 13 -33 0z"/>
<path d="M3143 6003 c9 -2 23 -2 30 0 6 3 -1 5 -18 5 -16 0 -22 -2 -12 -5z"/>
<path d="M2250 5965 c0 -14 5 -25 10 -25 6 0 10 11 10 25 0 14 -4 25 -10 25
-5 0 -10 -11 -10 -25z"/>
<path d="M2612 5960 c-45 -10 -56 -25 -12 -15 111 24 108 23 75 23 -16 0 -45
-4 -63 -8z"/>
<path d="M2918 5963 c12 -2 32 -2 45 0 12 2 2 4 -23 4 -25 0 -35 -2 -22 -4z"/>
<path d="M4290 5783 c0 -5 9 -18 20 -28 11 -10 20 -14 20 -8 0 5 -9 18 -20 28
-11 10 -20 14 -20 8z"/>
<path d="M2214 5755 c-10 -8 -14 -15 -8 -15 6 0 17 7 24 15 16 19 9 19 -16 0z"/>
<path d="M1897 5460 c3 -11 7 -20 9 -20 2 0 4 9 4 20 0 11 -4 20 -9 20 -5 0
-7 -9 -4 -20z"/>
<path d="M2490 5032 c0 -4 9 -13 20 -20 23 -14 26 -7 6 14 -16 15 -26 18 -26
6z"/>
<path d="M2160 3695 c-41 -8 -79 -21 -85 -29 -9 -11 -20 -13 -51 -6 -21 4 -48
7 -59 6 -25 -2 -31 -21 -8 -22 10 -1 70 -11 133 -24 108 -22 230 -70 230 -92
0 -4 -31 -8 -68 -8 -51 0 -79 -6 -112 -22 -49 -25 -95 -78 -105 -120 -6 -25
-4 -28 17 -28 14 0 28 -3 32 -7 13 -14 107 -9 102 4 -3 7 9 19 27 28 23 11 33
13 36 4 2 -6 16 -25 31 -42 23 -26 35 -31 86 -34 34 -3 78 2 105 10 26 8 53
11 60 7 16 -11 21 -41 6 -39 -48 6 -65 -14 -22 -25 30 -8 33 -31 4 -46 -17 -9
-18 -14 -8 -26 9 -12 25 -13 64 -9 47 6 54 5 68 -15 l16 -23 38 32 c20 17 43
31 50 31 7 0 13 7 13 15 0 17 -35 55 -50 55 -5 0 -10 5 -10 10 0 6 11 10 25
10 18 0 25 5 25 19 0 18 2 18 44 -4 l45 -24 3 22 c2 17 9 22 30 20 31 -2 44
23 32 60 -4 12 -6 37 -5 55 1 17 -3 32 -9 32 -6 0 -10 8 -8 18 2 12 -4 17 -22
17 -18 0 -26 6 -28 23 -2 14 -13 24 -30 28 -15 4 -46 24 -68 44 -32 29 -55 41
-100 49 -33 7 -79 17 -104 22 -25 6 -85 15 -135 20 -49 5 -106 11 -125 13 -19
3 -69 -1 -110 -9z m87 -31 c-3 -3 -12 -4 -19 -1 -8 3 -5 6 6 6 11 1 17 -2 13
-5z m-83 -229 c-4 -8 -14 -15 -23 -15 -14 1 -13 3 3 15 25 19 27 19 20 0z
m233 -31 c-9 -9 -28 6 -21 18 4 6 10 6 17 -1 6 -6 8 -13 4 -17z"/>
<path d="M1391 3681 c-16 -29 -14 -54 3 -48 8 3 17 1 20 -6 4 -11 6 -1 10 50
2 24 -21 27 -33 4z"/>
<path d="M1466 3618 c-12 -62 9 -89 27 -35 6 20 5 31 -7 42 -14 14 -16 14 -20
-7z"/>
<path d="M625 3490 c-3 -5 1 -10 10 -10 9 0 13 5 10 10 -3 6 -8 10 -10 10 -2
0 -7 -4 -10 -10z"/>
<path d="M1450 3440 c0 -5 5 -10 11 -10 5 0 7 5 4 10 -3 6 -8 10 -11 10 -2 0
-4 -4 -4 -10z"/>
<path d="M1592 3400 c-6 -11 -12 -26 -12 -33 0 -8 -8 -29 -17 -48 -18 -37 -28
-165 -12 -174 5 -4 9 -18 9 -32 0 -23 2 -24 17 -12 11 10 14 10 9 2 -4 -7 -3
-13 3 -13 16 0 21 32 12 65 -5 17 -10 22 -10 12 -1 -10 -5 -15 -11 -12 -23 14
-3 59 22 50 10 -4 14 -14 11 -28 -5 -22 -5 -22 9 -2 25 34 28 68 14 149 -15
87 -26 105 -44 76z"/>
<path d="M5761 3281 c-1 -32 2 -42 10 -34 7 7 7 21 1 44 l-10 34 -1 -44z"/>
<path d="M2444 3274 c3 -9 6 -18 6 -20 0 -2 5 -4 10 -4 6 0 10 9 10 20 0 12
-7 20 -16 20 -11 0 -14 -5 -10 -16z"/>
<path d="M2390 3262 c0 -5 7 -13 16 -16 10 -4 14 -1 12 6 -5 15 -28 23 -28 10z"/>
<path d="M480 3132 c0 -18 5 -32 10 -32 6 0 8 11 4 28 -10 39 -14 40 -14 4z"/>
<path d="M5762 3130 c0 -14 2 -19 5 -12 2 6 2 18 0 25 -3 6 -5 1 -5 -13z"/>
<path d="M1570 3070 c0 -5 5 -10 10 -10 6 0 10 5 10 10 0 6 -4 10 -10 10 -5 0
-10 -4 -10 -10z"/>
<path d="M1526 3001 c-4 -6 -3 -18 2 -27 6 -11 11 -13 16 -5 4 6 3 18 -2 27
-6 11 -11 13 -16 5z"/>
<path d="M6110 2754 c0 -8 5 -12 10 -9 6 3 10 10 10 16 0 5 -4 9 -10 9 -5 0
-10 -7 -10 -16z"/>
<path d="M2751 2633 c-34 -40 -41 -55 -41 -92 0 -36 2 -41 14 -32 8 6 19 33
25 58 7 26 21 60 33 75 34 49 13 42 -31 -9z"/>
<path d="M2685 2511 c-3 -5 -1 -12 5 -16 5 -3 10 1 10 9 0 18 -6 21 -15 7z"/>
<path d="M2265 1420 c3 -5 8 -10 11 -10 2 0 4 5 4 10 0 6 -5 10 -11 10 -5 0
-7 -4 -4 -10z"/>
</g>
</svg>
